<mxfile host="Electron" agent="Mozilla/5.0 (Windows NT 10.0; Win64; x64) AppleWebKit/537.36 (KHTML, like Gecko) draw.io/24.7.17 Chrome/128.0.6613.36 Electron/32.0.1 Safari/537.36" version="24.7.17">
  <diagram name="lab" id="ztlj2dkth2DIanU9atiN">
    <mxGraphModel dx="1434" dy="844" grid="1" gridSize="10" guides="1" tooltips="1" connect="1" arrows="1" fold="1" page="1" pageScale="1" pageWidth="827" pageHeight="1169" math="0" shadow="0">
      <root>
        <mxCell id="0" />
        <mxCell id="1" parent="0" />
        <mxCell id="ObuFtF-TrSuYdgq8YHse-32" style="edgeStyle=none;rounded=0;sketch=0;hachureGap=4;jiggle=2;curveFitting=1;orthogonalLoop=1;jettySize=auto;html=1;fontFamily=Montserrat;fontSource=https%3A%2F%2Ffonts.googleapis.com%2Fcss%3Ffamily%3DMontserrat;fontSize=14;endArrow=none;endFill=0;fontStyle=1;labelBackgroundColor=none;fillColor=#bac8d3;strokeColor=#23445d;" parent="1" source="ObuFtF-TrSuYdgq8YHse-1" target="ObuFtF-TrSuYdgq8YHse-53" edge="1">
          <mxGeometry relative="1" as="geometry">
            <mxPoint x="380" y="130" as="targetPoint" />
          </mxGeometry>
        </mxCell>
        <mxCell id="ObuFtF-TrSuYdgq8YHse-45" style="edgeStyle=none;rounded=0;sketch=0;hachureGap=4;jiggle=2;curveFitting=1;orthogonalLoop=1;jettySize=auto;html=1;fontFamily=Montserrat;fontSource=https%3A%2F%2Ffonts.googleapis.com%2Fcss%3Ffamily%3DMontserrat;fontSize=14;endArrow=none;endFill=0;fontStyle=1;labelBackgroundColor=none;fillColor=#bac8d3;strokeColor=#23445d;" parent="1" source="ObuFtF-TrSuYdgq8YHse-1" target="ObuFtF-TrSuYdgq8YHse-36" edge="1">
          <mxGeometry relative="1" as="geometry" />
        </mxCell>
        <mxCell id="ObuFtF-TrSuYdgq8YHse-1" value="R2" style="sketch=0;points=[[0.5,0,0],[1,0.5,0],[0.5,1,0],[0,0.5,0],[0.145,0.145,0],[0.8555,0.145,0],[0.855,0.8555,0],[0.145,0.855,0]];verticalLabelPosition=top;html=1;verticalAlign=bottom;aspect=fixed;align=center;pointerEvents=1;shape=mxgraph.cisco19.rect;prIcon=router;fillColor=#bac8d3;strokeColor=#23445d;hachureGap=4;jiggle=2;curveFitting=1;fontFamily=Montserrat;fontSource=https%3A%2F%2Ffonts.googleapis.com%2Fcss%3Ffamily%3DMontserrat;fontSize=14;labelPosition=center;fontStyle=1;labelBackgroundColor=none;" parent="1" vertex="1">
          <mxGeometry x="290" y="170" width="50" height="50" as="geometry" />
        </mxCell>
        <mxCell id="ObuFtF-TrSuYdgq8YHse-31" style="edgeStyle=none;rounded=0;sketch=0;hachureGap=4;jiggle=2;curveFitting=1;orthogonalLoop=1;jettySize=auto;html=1;fontFamily=Montserrat;fontSource=https%3A%2F%2Ffonts.googleapis.com%2Fcss%3Ffamily%3DMontserrat;fontSize=14;endArrow=none;endFill=0;fontStyle=1;labelBackgroundColor=none;fillColor=#bac8d3;strokeColor=#23445d;" parent="1" source="ObuFtF-TrSuYdgq8YHse-2" target="ObuFtF-TrSuYdgq8YHse-53" edge="1">
          <mxGeometry relative="1" as="geometry">
            <mxPoint x="427.2222222222222" y="130" as="targetPoint" />
          </mxGeometry>
        </mxCell>
        <mxCell id="ObuFtF-TrSuYdgq8YHse-44" style="edgeStyle=none;rounded=0;sketch=0;hachureGap=4;jiggle=2;curveFitting=1;orthogonalLoop=1;jettySize=auto;html=1;fontFamily=Montserrat;fontSource=https%3A%2F%2Ffonts.googleapis.com%2Fcss%3Ffamily%3DMontserrat;fontSize=14;endArrow=none;endFill=0;fontStyle=1;labelBackgroundColor=none;fillColor=#bac8d3;strokeColor=#23445d;" parent="1" source="ObuFtF-TrSuYdgq8YHse-2" target="ObuFtF-TrSuYdgq8YHse-21" edge="1">
          <mxGeometry relative="1" as="geometry" />
        </mxCell>
        <mxCell id="ObuFtF-TrSuYdgq8YHse-46" style="edgeStyle=none;rounded=0;sketch=0;hachureGap=4;jiggle=2;curveFitting=1;orthogonalLoop=1;jettySize=auto;html=1;fontFamily=Montserrat;fontSource=https%3A%2F%2Ffonts.googleapis.com%2Fcss%3Ffamily%3DMontserrat;fontSize=14;endArrow=none;endFill=0;fontStyle=1;labelBackgroundColor=none;fillColor=#bac8d3;strokeColor=#23445d;" parent="1" source="ObuFtF-TrSuYdgq8YHse-2" target="ObuFtF-TrSuYdgq8YHse-36" edge="1">
          <mxGeometry relative="1" as="geometry" />
        </mxCell>
        <mxCell id="ObuFtF-TrSuYdgq8YHse-2" value="R3" style="sketch=0;points=[[0.5,0,0],[1,0.5,0],[0.5,1,0],[0,0.5,0],[0.145,0.145,0],[0.8555,0.145,0],[0.855,0.8555,0],[0.145,0.855,0]];verticalLabelPosition=top;html=1;verticalAlign=bottom;aspect=fixed;align=center;pointerEvents=1;shape=mxgraph.cisco19.rect;prIcon=router;fillColor=#bac8d3;strokeColor=#23445d;hachureGap=4;jiggle=2;curveFitting=1;fontFamily=Montserrat;fontSource=https%3A%2F%2Ffonts.googleapis.com%2Fcss%3Ffamily%3DMontserrat;fontSize=14;labelPosition=center;fontStyle=1;labelBackgroundColor=none;" parent="1" vertex="1">
          <mxGeometry x="460" y="170" width="50" height="50" as="geometry" />
        </mxCell>
        <mxCell id="ObuFtF-TrSuYdgq8YHse-43" style="edgeStyle=none;rounded=0;sketch=0;hachureGap=4;jiggle=2;curveFitting=1;orthogonalLoop=1;jettySize=auto;html=1;fontFamily=Montserrat;fontSource=https%3A%2F%2Ffonts.googleapis.com%2Fcss%3Ffamily%3DMontserrat;fontSize=14;endArrow=none;endFill=0;fontStyle=1;labelBackgroundColor=none;fillColor=#bac8d3;strokeColor=#23445d;" parent="1" source="ObuFtF-TrSuYdgq8YHse-3" target="ObuFtF-TrSuYdgq8YHse-1" edge="1">
          <mxGeometry relative="1" as="geometry" />
        </mxCell>
        <mxCell id="ObuFtF-TrSuYdgq8YHse-3" value="S1" style="sketch=0;points=[[0.015,0.015,0],[0.985,0.015,0],[0.985,0.985,0],[0.015,0.985,0],[0.25,0,0],[0.5,0,0],[0.75,0,0],[1,0.25,0],[1,0.5,0],[1,0.75,0],[0.75,1,0],[0.5,1,0],[0.25,1,0],[0,0.75,0],[0,0.5,0],[0,0.25,0]];verticalLabelPosition=bottom;html=1;verticalAlign=top;aspect=fixed;align=center;pointerEvents=1;shape=mxgraph.cisco19.rect;prIcon=l2_switch;fillColor=#bac8d3;strokeColor=#23445d;hachureGap=4;jiggle=2;curveFitting=1;fontFamily=Montserrat;fontSource=https%3A%2F%2Ffonts.googleapis.com%2Fcss%3Ffamily%3DMontserrat;fontSize=14;fontStyle=1;labelBackgroundColor=none;" parent="1" vertex="1">
          <mxGeometry x="110" y="270" width="50" height="50" as="geometry" />
        </mxCell>
        <mxCell id="ObuFtF-TrSuYdgq8YHse-9" style="edgeStyle=none;rounded=0;sketch=0;hachureGap=4;jiggle=2;curveFitting=1;orthogonalLoop=1;jettySize=auto;html=1;fontFamily=Montserrat;fontSource=https%3A%2F%2Ffonts.googleapis.com%2Fcss%3Ffamily%3DMontserrat;fontSize=14;endArrow=none;endFill=0;fontStyle=1;labelBackgroundColor=none;fillColor=#bac8d3;strokeColor=#23445d;" parent="1" source="-ka1Ey7vz2dSu-BX1iiI-1" target="ObuFtF-TrSuYdgq8YHse-3" edge="1">
          <mxGeometry relative="1" as="geometry">
            <mxPoint x="95.52631578947376" y="370" as="sourcePoint" />
          </mxGeometry>
        </mxCell>
        <mxCell id="ObuFtF-TrSuYdgq8YHse-10" style="edgeStyle=none;rounded=0;sketch=0;hachureGap=4;jiggle=2;curveFitting=1;orthogonalLoop=1;jettySize=auto;html=1;fontFamily=Montserrat;fontSource=https%3A%2F%2Ffonts.googleapis.com%2Fcss%3Ffamily%3DMontserrat;fontSize=14;endArrow=none;endFill=0;fontStyle=1;labelBackgroundColor=none;fillColor=#bac8d3;strokeColor=#23445d;" parent="1" source="-ka1Ey7vz2dSu-BX1iiI-2" target="ObuFtF-TrSuYdgq8YHse-3" edge="1">
          <mxGeometry relative="1" as="geometry">
            <mxPoint x="174.47368421052624" y="370" as="sourcePoint" />
          </mxGeometry>
        </mxCell>
        <mxCell id="ObuFtF-TrSuYdgq8YHse-17" style="rounded=0;hachureGap=4;orthogonalLoop=1;jettySize=auto;html=1;fontFamily=Montserrat;fontSource=https%3A%2F%2Ffonts.googleapis.com%2Fcss%3Ffamily%3DMontserrat;fontSize=14;endArrow=none;endFill=0;fontStyle=1;labelBackgroundColor=none;fillColor=#bac8d3;strokeColor=#23445d;" parent="1" source="ObuFtF-TrSuYdgq8YHse-18" target="ObuFtF-TrSuYdgq8YHse-21" edge="1">
          <mxGeometry relative="1" as="geometry">
            <mxPoint x="230" y="325" as="sourcePoint" />
          </mxGeometry>
        </mxCell>
        <mxCell id="ObuFtF-TrSuYdgq8YHse-34" style="edgeStyle=none;rounded=0;sketch=0;hachureGap=4;jiggle=2;curveFitting=1;orthogonalLoop=1;jettySize=auto;html=1;fontFamily=Montserrat;fontSource=https%3A%2F%2Ffonts.googleapis.com%2Fcss%3Ffamily%3DMontserrat;fontSize=14;endArrow=none;endFill=0;fontStyle=1;labelBackgroundColor=none;fillColor=#bac8d3;strokeColor=#23445d;" parent="1" source="ObuFtF-TrSuYdgq8YHse-18" target="ObuFtF-TrSuYdgq8YHse-53" edge="1">
          <mxGeometry relative="1" as="geometry">
            <mxPoint x="430" y="113.33333333333326" as="targetPoint" />
          </mxGeometry>
        </mxCell>
        <mxCell id="ObuFtF-TrSuYdgq8YHse-47" style="edgeStyle=none;rounded=0;sketch=0;hachureGap=4;jiggle=2;curveFitting=1;orthogonalLoop=1;jettySize=auto;html=1;fontFamily=Montserrat;fontSource=https%3A%2F%2Ffonts.googleapis.com%2Fcss%3Ffamily%3DMontserrat;fontSize=14;endArrow=none;endFill=0;fontStyle=1;labelBackgroundColor=none;fillColor=#bac8d3;strokeColor=#23445d;" parent="1" source="ObuFtF-TrSuYdgq8YHse-18" target="ObuFtF-TrSuYdgq8YHse-36" edge="1">
          <mxGeometry relative="1" as="geometry" />
        </mxCell>
        <mxCell id="ObuFtF-TrSuYdgq8YHse-18" value="R4" style="sketch=0;points=[[0.5,0,0],[1,0.5,0],[0.5,1,0],[0,0.5,0],[0.145,0.145,0],[0.8555,0.145,0],[0.855,0.8555,0],[0.145,0.855,0]];verticalLabelPosition=top;html=1;verticalAlign=bottom;aspect=fixed;align=center;pointerEvents=1;shape=mxgraph.cisco19.rect;prIcon=router;fillColor=#bac8d3;strokeColor=#23445d;hachureGap=4;jiggle=2;curveFitting=1;fontFamily=Montserrat;fontSource=https%3A%2F%2Ffonts.googleapis.com%2Fcss%3Ffamily%3DMontserrat;fontSize=14;labelPosition=center;fontStyle=1;labelBackgroundColor=none;" parent="1" vertex="1">
          <mxGeometry x="650" y="170" width="50" height="50" as="geometry" />
        </mxCell>
        <mxCell id="ObuFtF-TrSuYdgq8YHse-27" style="edgeStyle=none;rounded=0;sketch=0;hachureGap=4;jiggle=2;curveFitting=1;orthogonalLoop=1;jettySize=auto;html=1;fontFamily=Montserrat;fontSource=https%3A%2F%2Ffonts.googleapis.com%2Fcss%3Ffamily%3DMontserrat;fontSize=14;endArrow=none;endFill=0;fontStyle=1;labelBackgroundColor=none;fillColor=#bac8d3;strokeColor=#23445d;" parent="1" source="ObuFtF-TrSuYdgq8YHse-20" target="ObuFtF-TrSuYdgq8YHse-3" edge="1">
          <mxGeometry relative="1" as="geometry" />
        </mxCell>
        <mxCell id="ObuFtF-TrSuYdgq8YHse-33" style="edgeStyle=none;rounded=0;sketch=0;hachureGap=4;jiggle=2;curveFitting=1;orthogonalLoop=1;jettySize=auto;html=1;fontFamily=Montserrat;fontSource=https%3A%2F%2Ffonts.googleapis.com%2Fcss%3Ffamily%3DMontserrat;fontSize=14;endArrow=none;endFill=0;fontStyle=1;labelBackgroundColor=none;fillColor=#bac8d3;strokeColor=#23445d;" parent="1" source="ObuFtF-TrSuYdgq8YHse-20" target="ObuFtF-TrSuYdgq8YHse-53" edge="1">
          <mxGeometry relative="1" as="geometry">
            <mxPoint x="380" y="113.33333333333326" as="targetPoint" />
          </mxGeometry>
        </mxCell>
        <mxCell id="ObuFtF-TrSuYdgq8YHse-48" style="edgeStyle=none;rounded=0;sketch=0;hachureGap=4;jiggle=2;curveFitting=1;orthogonalLoop=1;jettySize=auto;html=1;fontFamily=Montserrat;fontSource=https%3A%2F%2Ffonts.googleapis.com%2Fcss%3Ffamily%3DMontserrat;fontSize=14;endArrow=none;endFill=0;fontStyle=1;labelBackgroundColor=none;fillColor=#bac8d3;strokeColor=#23445d;" parent="1" source="ObuFtF-TrSuYdgq8YHse-20" target="ObuFtF-TrSuYdgq8YHse-36" edge="1">
          <mxGeometry relative="1" as="geometry" />
        </mxCell>
        <mxCell id="ObuFtF-TrSuYdgq8YHse-20" value="R1" style="sketch=0;points=[[0.5,0,0],[1,0.5,0],[0.5,1,0],[0,0.5,0],[0.145,0.145,0],[0.8555,0.145,0],[0.855,0.8555,0],[0.145,0.855,0]];verticalLabelPosition=top;html=1;verticalAlign=bottom;aspect=fixed;align=center;pointerEvents=1;shape=mxgraph.cisco19.rect;prIcon=router;fillColor=#bac8d3;strokeColor=#23445d;hachureGap=4;jiggle=2;curveFitting=1;fontFamily=Montserrat;fontSource=https%3A%2F%2Ffonts.googleapis.com%2Fcss%3Ffamily%3DMontserrat;fontSize=14;labelPosition=center;fontStyle=1;labelBackgroundColor=none;" parent="1" vertex="1">
          <mxGeometry x="110" y="170" width="50" height="50" as="geometry" />
        </mxCell>
        <mxCell id="ObuFtF-TrSuYdgq8YHse-21" value="S3" style="sketch=0;points=[[0.015,0.015,0],[0.985,0.015,0],[0.985,0.985,0],[0.015,0.985,0],[0.25,0,0],[0.5,0,0],[0.75,0,0],[1,0.25,0],[1,0.5,0],[1,0.75,0],[0.75,1,0],[0.5,1,0],[0.25,1,0],[0,0.75,0],[0,0.5,0],[0,0.25,0]];verticalLabelPosition=bottom;html=1;verticalAlign=top;aspect=fixed;align=center;pointerEvents=1;shape=mxgraph.cisco19.rect;prIcon=l2_switch;fillColor=#bac8d3;strokeColor=#23445d;hachureGap=4;jiggle=2;curveFitting=1;fontFamily=Montserrat;fontSource=https%3A%2F%2Ffonts.googleapis.com%2Fcss%3Ffamily%3DMontserrat;fontSize=14;fontStyle=1;labelBackgroundColor=none;" parent="1" vertex="1">
          <mxGeometry x="650" y="270" width="50" height="50" as="geometry" />
        </mxCell>
        <mxCell id="ObuFtF-TrSuYdgq8YHse-22" style="edgeStyle=none;rounded=0;sketch=0;hachureGap=4;jiggle=2;curveFitting=1;orthogonalLoop=1;jettySize=auto;html=1;fontFamily=Montserrat;fontSource=https%3A%2F%2Ffonts.googleapis.com%2Fcss%3Ffamily%3DMontserrat;fontSize=14;endArrow=none;endFill=0;fontStyle=1;labelBackgroundColor=none;fillColor=#bac8d3;strokeColor=#23445d;" parent="1" source="-ka1Ey7vz2dSu-BX1iiI-6" target="ObuFtF-TrSuYdgq8YHse-21" edge="1">
          <mxGeometry relative="1" as="geometry">
            <mxPoint x="635.5263157894738" y="370" as="sourcePoint" />
          </mxGeometry>
        </mxCell>
        <mxCell id="ObuFtF-TrSuYdgq8YHse-24" style="edgeStyle=none;rounded=0;sketch=0;hachureGap=4;jiggle=2;curveFitting=1;orthogonalLoop=1;jettySize=auto;html=1;fontFamily=Montserrat;fontSource=https%3A%2F%2Ffonts.googleapis.com%2Fcss%3Ffamily%3DMontserrat;fontSize=14;endArrow=none;endFill=0;fontStyle=1;labelBackgroundColor=none;fillColor=#bac8d3;strokeColor=#23445d;" parent="1" source="-ka1Ey7vz2dSu-BX1iiI-7" target="ObuFtF-TrSuYdgq8YHse-21" edge="1">
          <mxGeometry relative="1" as="geometry">
            <mxPoint x="714.4736842105262" y="370" as="sourcePoint" />
          </mxGeometry>
        </mxCell>
        <mxCell id="ObuFtF-TrSuYdgq8YHse-36" value="S2" style="sketch=0;points=[[0.015,0.015,0],[0.985,0.015,0],[0.985,0.985,0],[0.015,0.985,0],[0.25,0,0],[0.5,0,0],[0.75,0,0],[1,0.25,0],[1,0.5,0],[1,0.75,0],[0.75,1,0],[0.5,1,0],[0.25,1,0],[0,0.75,0],[0,0.5,0],[0,0.25,0]];verticalLabelPosition=bottom;html=1;verticalAlign=top;aspect=fixed;align=center;pointerEvents=1;shape=mxgraph.cisco19.rect;prIcon=l2_switch;fillColor=#bac8d3;strokeColor=#23445d;hachureGap=4;jiggle=2;curveFitting=1;fontFamily=Montserrat;fontSource=https%3A%2F%2Ffonts.googleapis.com%2Fcss%3Ffamily%3DMontserrat;fontSize=14;fontStyle=1;labelBackgroundColor=none;" parent="1" vertex="1">
          <mxGeometry x="380" y="270" width="50" height="50" as="geometry" />
        </mxCell>
        <mxCell id="ObuFtF-TrSuYdgq8YHse-37" style="edgeStyle=none;rounded=0;sketch=0;hachureGap=4;jiggle=2;curveFitting=1;orthogonalLoop=1;jettySize=auto;html=1;fontFamily=Montserrat;fontSource=https%3A%2F%2Ffonts.googleapis.com%2Fcss%3Ffamily%3DMontserrat;fontSize=14;endArrow=none;endFill=0;fontStyle=1;labelBackgroundColor=none;fillColor=#bac8d3;strokeColor=#23445d;" parent="1" source="-ka1Ey7vz2dSu-BX1iiI-4" target="ObuFtF-TrSuYdgq8YHse-36" edge="1">
          <mxGeometry relative="1" as="geometry">
            <mxPoint x="326.0526315789473" y="370" as="sourcePoint" />
          </mxGeometry>
        </mxCell>
        <mxCell id="ObuFtF-TrSuYdgq8YHse-39" style="edgeStyle=none;rounded=0;sketch=0;hachureGap=4;jiggle=2;curveFitting=1;orthogonalLoop=1;jettySize=auto;html=1;fontFamily=Montserrat;fontSource=https%3A%2F%2Ffonts.googleapis.com%2Fcss%3Ffamily%3DMontserrat;fontSize=14;endArrow=none;endFill=0;fontStyle=1;labelBackgroundColor=none;fillColor=#bac8d3;strokeColor=#23445d;" parent="1" source="-ka1Ey7vz2dSu-BX1iiI-5" target="ObuFtF-TrSuYdgq8YHse-36" edge="1">
          <mxGeometry relative="1" as="geometry">
            <mxPoint x="405" y="370" as="sourcePoint" />
          </mxGeometry>
        </mxCell>
        <mxCell id="ObuFtF-TrSuYdgq8YHse-53" value="&lt;span style=&quot;font-size: 14px;&quot;&gt;R5&lt;/span&gt;" style="sketch=0;points=[[0.5,0,0],[1,0.5,0],[0.5,1,0],[0,0.5,0],[0.145,0.145,0],[0.8555,0.145,0],[0.855,0.8555,0],[0.145,0.855,0]];verticalLabelPosition=top;html=1;verticalAlign=bottom;aspect=fixed;align=center;pointerEvents=1;shape=mxgraph.cisco19.rect;prIcon=router;fillColor=#bac8d3;strokeColor=#23445d;hachureGap=4;jiggle=2;curveFitting=1;fontFamily=Montserrat;fontSource=https%3A%2F%2Ffonts.googleapis.com%2Fcss%3Ffamily%3DMontserrat;fontSize=14;labelPosition=center;fontStyle=1;labelBackgroundColor=none;" parent="1" vertex="1">
          <mxGeometry x="375" y="80" width="50" height="50" as="geometry" />
        </mxCell>
        <mxCell id="-ka1Ey7vz2dSu-BX1iiI-1" value="PC1" style="verticalAlign=top;verticalLabelPosition=bottom;labelPosition=center;align=center;html=1;outlineConnect=0;fillColor=#bac8d3;strokeColor=#23445d;gradientDirection=north;strokeWidth=2;shape=mxgraph.networks.pc;fontFamily=Montserrat;fontSource=https%3A%2F%2Ffonts.googleapis.com%2Fcss%3Ffamily%3DMontserrat;fontSize=14;fontStyle=1;labelBackgroundColor=none;" parent="1" vertex="1">
          <mxGeometry x="50" y="360" width="71.43" height="50" as="geometry" />
        </mxCell>
        <mxCell id="-ka1Ey7vz2dSu-BX1iiI-2" value="PC2" style="verticalAlign=top;verticalLabelPosition=bottom;labelPosition=center;align=center;html=1;outlineConnect=0;fillColor=#bac8d3;strokeColor=#23445d;gradientDirection=north;strokeWidth=2;shape=mxgraph.networks.pc;fontFamily=Montserrat;fontSource=https%3A%2F%2Ffonts.googleapis.com%2Fcss%3Ffamily%3DMontserrat;fontSize=14;fontStyle=1;labelBackgroundColor=none;" parent="1" vertex="1">
          <mxGeometry x="150" y="360" width="71.43" height="50" as="geometry" />
        </mxCell>
        <mxCell id="-ka1Ey7vz2dSu-BX1iiI-4" value="PC2" style="verticalAlign=top;verticalLabelPosition=bottom;labelPosition=center;align=center;html=1;outlineConnect=0;fillColor=#bac8d3;strokeColor=#23445d;gradientDirection=north;strokeWidth=2;shape=mxgraph.networks.pc;fontFamily=Montserrat;fontSource=https%3A%2F%2Ffonts.googleapis.com%2Fcss%3Ffamily%3DMontserrat;fontSize=14;fontStyle=1;labelBackgroundColor=none;" parent="1" vertex="1">
          <mxGeometry x="320" y="360" width="71.43" height="50" as="geometry" />
        </mxCell>
        <mxCell id="-ka1Ey7vz2dSu-BX1iiI-5" value="PC2" style="verticalAlign=top;verticalLabelPosition=bottom;labelPosition=center;align=center;html=1;outlineConnect=0;fillColor=#bac8d3;strokeColor=#23445d;gradientDirection=north;strokeWidth=2;shape=mxgraph.networks.pc;fontFamily=Montserrat;fontSource=https%3A%2F%2Ffonts.googleapis.com%2Fcss%3Ffamily%3DMontserrat;fontSize=14;fontStyle=1;labelBackgroundColor=none;" parent="1" vertex="1">
          <mxGeometry x="421" y="360" width="71.43" height="50" as="geometry" />
        </mxCell>
        <mxCell id="-ka1Ey7vz2dSu-BX1iiI-6" value="PC1" style="verticalAlign=top;verticalLabelPosition=bottom;labelPosition=center;align=center;html=1;outlineConnect=0;fillColor=#bac8d3;strokeColor=#23445d;gradientDirection=north;strokeWidth=2;shape=mxgraph.networks.pc;fontFamily=Montserrat;fontSource=https%3A%2F%2Ffonts.googleapis.com%2Fcss%3Ffamily%3DMontserrat;fontSize=14;fontStyle=1;labelBackgroundColor=none;" parent="1" vertex="1">
          <mxGeometry x="589.28" y="360" width="71.43" height="50" as="geometry" />
        </mxCell>
        <mxCell id="-ka1Ey7vz2dSu-BX1iiI-7" value="PC2" style="verticalAlign=top;verticalLabelPosition=bottom;labelPosition=center;align=center;html=1;outlineConnect=0;fillColor=#bac8d3;strokeColor=#23445d;gradientDirection=north;strokeWidth=2;shape=mxgraph.networks.pc;fontFamily=Montserrat;fontSource=https%3A%2F%2Ffonts.googleapis.com%2Fcss%3Ffamily%3DMontserrat;fontSize=14;fontStyle=1;labelBackgroundColor=none;" parent="1" vertex="1">
          <mxGeometry x="689.28" y="360" width="71.43" height="50" as="geometry" />
        </mxCell>
        <mxCell id="-ka1Ey7vz2dSu-BX1iiI-84" value="" style="group" parent="1" vertex="1" connectable="0">
          <mxGeometry x="37.4" y="60" width="735.21" height="381.48" as="geometry" />
        </mxCell>
        <mxCell id="-ka1Ey7vz2dSu-BX1iiI-85" value="net.lab" style="text;html=1;align=center;verticalAlign=middle;whiteSpace=wrap;rounded=0;rotation=-30;fontFamily=Montserrat;fontSource=https%3A%2F%2Ffonts.googleapis.com%2Fcss%3Ffamily%3DMontserrat;textOpacity=15;fontColor=#000000;container=0;" parent="-ka1Ey7vz2dSu-BX1iiI-84" vertex="1">
          <mxGeometry x="2.8041623113627723" y="332.03583201321715" width="91.0002089629002" height="29.233620416527685" as="geometry" />
        </mxCell>
        <mxCell id="-ka1Ey7vz2dSu-BX1iiI-86" value="net.lab" style="text;html=1;align=center;verticalAlign=middle;whiteSpace=wrap;rounded=0;rotation=-30;fontFamily=Montserrat;fontSource=https%3A%2F%2Ffonts.googleapis.com%2Fcss%3Ffamily%3DMontserrat;textOpacity=15;fontColor=#000000;container=0;" parent="-ka1Ey7vz2dSu-BX1iiI-84" vertex="1">
          <mxGeometry x="82.8043460150113" y="332.03583201321715" width="91.0002089629002" height="29.233620416527685" as="geometry" />
        </mxCell>
        <mxCell id="-ka1Ey7vz2dSu-BX1iiI-87" value="net.lab" style="text;html=1;align=center;verticalAlign=middle;whiteSpace=wrap;rounded=0;rotation=-30;fontFamily=Montserrat;fontSource=https%3A%2F%2Ffonts.googleapis.com%2Fcss%3Ffamily%3DMontserrat;textOpacity=15;fontColor=#000000;container=0;" parent="-ka1Ey7vz2dSu-BX1iiI-84" vertex="1">
          <mxGeometry x="162.80452971865984" y="332.03583201321715" width="91.0002089629002" height="29.233620416527685" as="geometry" />
        </mxCell>
        <mxCell id="-ka1Ey7vz2dSu-BX1iiI-88" value="net.lab" style="text;html=1;align=center;verticalAlign=middle;whiteSpace=wrap;rounded=0;rotation=-30;fontFamily=Montserrat;fontSource=https%3A%2F%2Ffonts.googleapis.com%2Fcss%3Ffamily%3DMontserrat;textOpacity=15;fontColor=#000000;container=0;" parent="-ka1Ey7vz2dSu-BX1iiI-84" vertex="1">
          <mxGeometry x="242.8047134223083" y="332.03583201321715" width="91.0002089629002" height="29.233620416527685" as="geometry" />
        </mxCell>
        <mxCell id="-ka1Ey7vz2dSu-BX1iiI-89" value="net.lab" style="text;html=1;align=center;verticalAlign=middle;whiteSpace=wrap;rounded=0;rotation=-30;fontFamily=Montserrat;fontSource=https%3A%2F%2Ffonts.googleapis.com%2Fcss%3Ffamily%3DMontserrat;textOpacity=15;fontColor=#000000;container=0;" parent="-ka1Ey7vz2dSu-BX1iiI-84" vertex="1">
          <mxGeometry x="322.8048971259568" y="332.03583201321715" width="91.0002089629002" height="29.233620416527685" as="geometry" />
        </mxCell>
        <mxCell id="-ka1Ey7vz2dSu-BX1iiI-90" value="net.lab" style="text;html=1;align=center;verticalAlign=middle;whiteSpace=wrap;rounded=0;rotation=-30;fontFamily=Montserrat;fontSource=https%3A%2F%2Ffonts.googleapis.com%2Fcss%3Ffamily%3DMontserrat;textOpacity=15;fontColor=#000000;container=0;" parent="-ka1Ey7vz2dSu-BX1iiI-84" vertex="1">
          <mxGeometry x="402.80508082960534" y="332.03583201321715" width="91.0002089629002" height="29.233620416527685" as="geometry" />
        </mxCell>
        <mxCell id="-ka1Ey7vz2dSu-BX1iiI-91" value="net.lab" style="text;html=1;align=center;verticalAlign=middle;whiteSpace=wrap;rounded=0;rotation=-30;fontFamily=Montserrat;fontSource=https%3A%2F%2Ffonts.googleapis.com%2Fcss%3Ffamily%3DMontserrat;textOpacity=15;fontColor=#000000;container=0;" parent="-ka1Ey7vz2dSu-BX1iiI-84" vertex="1">
          <mxGeometry x="482.8052645332539" y="332.03583201321715" width="91.0002089629002" height="29.233620416527685" as="geometry" />
        </mxCell>
        <mxCell id="-ka1Ey7vz2dSu-BX1iiI-92" value="net.lab" style="text;html=1;align=center;verticalAlign=middle;whiteSpace=wrap;rounded=0;rotation=-30;fontFamily=Montserrat;fontSource=https%3A%2F%2Ffonts.googleapis.com%2Fcss%3Ffamily%3DMontserrat;textOpacity=15;fontColor=#000000;container=0;" parent="-ka1Ey7vz2dSu-BX1iiI-84" vertex="1">
          <mxGeometry x="562.8054482369024" y="332.03583201321715" width="91.0002089629002" height="29.233620416527685" as="geometry" />
        </mxCell>
        <mxCell id="-ka1Ey7vz2dSu-BX1iiI-93" value="net.lab" style="text;html=1;align=center;verticalAlign=middle;whiteSpace=wrap;rounded=0;rotation=-30;fontFamily=Montserrat;fontSource=https%3A%2F%2Ffonts.googleapis.com%2Fcss%3Ffamily%3DMontserrat;textOpacity=15;fontColor=#000000;container=0;" parent="-ka1Ey7vz2dSu-BX1iiI-84" vertex="1">
          <mxGeometry x="642.8056319405509" y="332.03583201321715" width="91.0002089629002" height="29.233620416527685" as="geometry" />
        </mxCell>
        <mxCell id="-ka1Ey7vz2dSu-BX1iiI-94" value="net.lab" style="text;html=1;align=center;verticalAlign=middle;whiteSpace=wrap;rounded=0;rotation=-30;fontFamily=Montserrat;fontSource=https%3A%2F%2Ffonts.googleapis.com%2Fcss%3Ffamily%3DMontserrat;textOpacity=15;fontColor=#000000;container=0;" parent="-ka1Ey7vz2dSu-BX1iiI-84" vertex="1">
          <mxGeometry x="1.4041590965489246" y="20.210547570255184" width="91.0002089629002" height="29.233620416527685" as="geometry" />
        </mxCell>
        <mxCell id="-ka1Ey7vz2dSu-BX1iiI-95" value="net.lab" style="text;html=1;align=center;verticalAlign=middle;whiteSpace=wrap;rounded=0;rotation=-30;fontFamily=Montserrat;fontSource=https%3A%2F%2Ffonts.googleapis.com%2Fcss%3Ffamily%3DMontserrat;textOpacity=15;fontColor=#000000;container=0;" parent="-ka1Ey7vz2dSu-BX1iiI-84" vertex="1">
          <mxGeometry x="81.40434280019745" y="20.210547570255184" width="91.0002089629002" height="29.233620416527685" as="geometry" />
        </mxCell>
        <mxCell id="-ka1Ey7vz2dSu-BX1iiI-96" value="net.lab" style="text;html=1;align=center;verticalAlign=middle;whiteSpace=wrap;rounded=0;rotation=-30;fontFamily=Montserrat;fontSource=https%3A%2F%2Ffonts.googleapis.com%2Fcss%3Ffamily%3DMontserrat;textOpacity=15;fontColor=#000000;container=0;" parent="-ka1Ey7vz2dSu-BX1iiI-84" vertex="1">
          <mxGeometry x="161.40452650384597" y="20.210547570255184" width="91.0002089629002" height="29.233620416527685" as="geometry" />
        </mxCell>
        <mxCell id="-ka1Ey7vz2dSu-BX1iiI-97" value="net.lab" style="text;html=1;align=center;verticalAlign=middle;whiteSpace=wrap;rounded=0;rotation=-30;fontFamily=Montserrat;fontSource=https%3A%2F%2Ffonts.googleapis.com%2Fcss%3Ffamily%3DMontserrat;textOpacity=15;fontColor=#000000;container=0;" parent="-ka1Ey7vz2dSu-BX1iiI-84" vertex="1">
          <mxGeometry x="241.40471020749447" y="20.210547570255184" width="91.0002089629002" height="29.233620416527685" as="geometry" />
        </mxCell>
        <mxCell id="-ka1Ey7vz2dSu-BX1iiI-98" value="net.lab" style="text;html=1;align=center;verticalAlign=middle;whiteSpace=wrap;rounded=0;rotation=-30;fontFamily=Montserrat;fontSource=https%3A%2F%2Ffonts.googleapis.com%2Fcss%3Ffamily%3DMontserrat;textOpacity=15;fontColor=#000000;container=0;" parent="-ka1Ey7vz2dSu-BX1iiI-84" vertex="1">
          <mxGeometry x="321.404893911143" y="20.210547570255184" width="91.0002089629002" height="29.233620416527685" as="geometry" />
        </mxCell>
        <mxCell id="-ka1Ey7vz2dSu-BX1iiI-99" value="net.lab" style="text;html=1;align=center;verticalAlign=middle;whiteSpace=wrap;rounded=0;rotation=-30;fontFamily=Montserrat;fontSource=https%3A%2F%2Ffonts.googleapis.com%2Fcss%3Ffamily%3DMontserrat;textOpacity=15;fontColor=#000000;container=0;" parent="-ka1Ey7vz2dSu-BX1iiI-84" vertex="1">
          <mxGeometry x="401.40507761479154" y="20.210547570255184" width="91.0002089629002" height="29.233620416527685" as="geometry" />
        </mxCell>
        <mxCell id="-ka1Ey7vz2dSu-BX1iiI-100" value="net.lab" style="text;html=1;align=center;verticalAlign=middle;whiteSpace=wrap;rounded=0;rotation=-30;fontFamily=Montserrat;fontSource=https%3A%2F%2Ffonts.googleapis.com%2Fcss%3Ffamily%3DMontserrat;textOpacity=15;fontColor=#000000;container=0;" parent="-ka1Ey7vz2dSu-BX1iiI-84" vertex="1">
          <mxGeometry x="481.40526131844007" y="20.210547570255184" width="91.0002089629002" height="29.233620416527685" as="geometry" />
        </mxCell>
        <mxCell id="-ka1Ey7vz2dSu-BX1iiI-101" value="net.lab" style="text;html=1;align=center;verticalAlign=middle;whiteSpace=wrap;rounded=0;rotation=-30;fontFamily=Montserrat;fontSource=https%3A%2F%2Ffonts.googleapis.com%2Fcss%3Ffamily%3DMontserrat;textOpacity=15;fontColor=#000000;container=0;" parent="-ka1Ey7vz2dSu-BX1iiI-84" vertex="1">
          <mxGeometry x="561.4054450220885" y="20.210547570255184" width="91.0002089629002" height="29.233620416527685" as="geometry" />
        </mxCell>
        <mxCell id="-ka1Ey7vz2dSu-BX1iiI-102" value="net.lab" style="text;html=1;align=center;verticalAlign=middle;whiteSpace=wrap;rounded=0;rotation=-30;fontFamily=Montserrat;fontSource=https%3A%2F%2Ffonts.googleapis.com%2Fcss%3Ffamily%3DMontserrat;textOpacity=15;fontColor=#000000;container=0;" parent="-ka1Ey7vz2dSu-BX1iiI-84" vertex="1">
          <mxGeometry x="1.4041590965489246" y="98.16686868099568" width="91.0002089629002" height="29.233620416527685" as="geometry" />
        </mxCell>
        <mxCell id="-ka1Ey7vz2dSu-BX1iiI-103" value="net.lab" style="text;html=1;align=center;verticalAlign=middle;whiteSpace=wrap;rounded=0;rotation=-30;fontFamily=Montserrat;fontSource=https%3A%2F%2Ffonts.googleapis.com%2Fcss%3Ffamily%3DMontserrat;textOpacity=15;fontColor=#000000;container=0;" parent="-ka1Ey7vz2dSu-BX1iiI-84" vertex="1">
          <mxGeometry x="81.40434280019745" y="98.16686868099568" width="91.0002089629002" height="29.233620416527685" as="geometry" />
        </mxCell>
        <mxCell id="-ka1Ey7vz2dSu-BX1iiI-104" value="net.lab" style="text;html=1;align=center;verticalAlign=middle;whiteSpace=wrap;rounded=0;rotation=-30;fontFamily=Montserrat;fontSource=https%3A%2F%2Ffonts.googleapis.com%2Fcss%3Ffamily%3DMontserrat;textOpacity=15;fontColor=#000000;container=0;" parent="-ka1Ey7vz2dSu-BX1iiI-84" vertex="1">
          <mxGeometry x="161.40452650384597" y="98.16686868099568" width="91.0002089629002" height="29.233620416527685" as="geometry" />
        </mxCell>
        <mxCell id="-ka1Ey7vz2dSu-BX1iiI-105" value="net.lab" style="text;html=1;align=center;verticalAlign=middle;whiteSpace=wrap;rounded=0;rotation=-30;fontFamily=Montserrat;fontSource=https%3A%2F%2Ffonts.googleapis.com%2Fcss%3Ffamily%3DMontserrat;textOpacity=15;fontColor=#000000;container=0;" parent="-ka1Ey7vz2dSu-BX1iiI-84" vertex="1">
          <mxGeometry x="241.40471020749447" y="98.16686868099568" width="91.0002089629002" height="29.233620416527685" as="geometry" />
        </mxCell>
        <mxCell id="-ka1Ey7vz2dSu-BX1iiI-106" value="net.lab" style="text;html=1;align=center;verticalAlign=middle;whiteSpace=wrap;rounded=0;rotation=-30;fontFamily=Montserrat;fontSource=https%3A%2F%2Ffonts.googleapis.com%2Fcss%3Ffamily%3DMontserrat;textOpacity=15;fontColor=#000000;container=0;" parent="-ka1Ey7vz2dSu-BX1iiI-84" vertex="1">
          <mxGeometry x="321.404893911143" y="98.16686868099568" width="91.0002089629002" height="29.233620416527685" as="geometry" />
        </mxCell>
        <mxCell id="-ka1Ey7vz2dSu-BX1iiI-107" value="net.lab" style="text;html=1;align=center;verticalAlign=middle;whiteSpace=wrap;rounded=0;rotation=-30;fontFamily=Montserrat;fontSource=https%3A%2F%2Ffonts.googleapis.com%2Fcss%3Ffamily%3DMontserrat;textOpacity=15;fontColor=#000000;container=0;" parent="-ka1Ey7vz2dSu-BX1iiI-84" vertex="1">
          <mxGeometry x="401.40507761479154" y="98.16686868099568" width="91.0002089629002" height="29.233620416527685" as="geometry" />
        </mxCell>
        <mxCell id="-ka1Ey7vz2dSu-BX1iiI-108" value="net.lab" style="text;html=1;align=center;verticalAlign=middle;whiteSpace=wrap;rounded=0;rotation=-30;fontFamily=Montserrat;fontSource=https%3A%2F%2Ffonts.googleapis.com%2Fcss%3Ffamily%3DMontserrat;textOpacity=15;fontColor=#000000;container=0;" parent="-ka1Ey7vz2dSu-BX1iiI-84" vertex="1">
          <mxGeometry x="481.40526131844007" y="98.16686868099568" width="91.0002089629002" height="29.233620416527685" as="geometry" />
        </mxCell>
        <mxCell id="-ka1Ey7vz2dSu-BX1iiI-109" value="net.lab" style="text;html=1;align=center;verticalAlign=middle;whiteSpace=wrap;rounded=0;rotation=-30;fontFamily=Montserrat;fontSource=https%3A%2F%2Ffonts.googleapis.com%2Fcss%3Ffamily%3DMontserrat;textOpacity=15;fontColor=#000000;container=0;" parent="-ka1Ey7vz2dSu-BX1iiI-84" vertex="1">
          <mxGeometry x="561.4054450220885" y="98.16686868099568" width="91.0002089629002" height="29.233620416527685" as="geometry" />
        </mxCell>
        <mxCell id="-ka1Ey7vz2dSu-BX1iiI-110" value="net.lab" style="text;html=1;align=center;verticalAlign=middle;whiteSpace=wrap;rounded=0;rotation=-30;fontFamily=Montserrat;fontSource=https%3A%2F%2Ffonts.googleapis.com%2Fcss%3Ffamily%3DMontserrat;textOpacity=15;fontColor=#000000;container=0;" parent="-ka1Ey7vz2dSu-BX1iiI-84" vertex="1">
          <mxGeometry x="1.4041590965489246" y="176.12318979173617" width="91.0002089629002" height="29.233620416527685" as="geometry" />
        </mxCell>
        <mxCell id="-ka1Ey7vz2dSu-BX1iiI-111" value="net.lab" style="text;html=1;align=center;verticalAlign=middle;whiteSpace=wrap;rounded=0;rotation=-30;fontFamily=Montserrat;fontSource=https%3A%2F%2Ffonts.googleapis.com%2Fcss%3Ffamily%3DMontserrat;textOpacity=15;fontColor=#000000;container=0;" parent="-ka1Ey7vz2dSu-BX1iiI-84" vertex="1">
          <mxGeometry x="81.40434280019745" y="176.12318979173617" width="91.0002089629002" height="29.233620416527685" as="geometry" />
        </mxCell>
        <mxCell id="-ka1Ey7vz2dSu-BX1iiI-112" value="net.lab" style="text;html=1;align=center;verticalAlign=middle;whiteSpace=wrap;rounded=0;rotation=-30;fontFamily=Montserrat;fontSource=https%3A%2F%2Ffonts.googleapis.com%2Fcss%3Ffamily%3DMontserrat;textOpacity=15;fontColor=#000000;container=0;" parent="-ka1Ey7vz2dSu-BX1iiI-84" vertex="1">
          <mxGeometry x="161.40452650384597" y="176.12318979173617" width="91.0002089629002" height="29.233620416527685" as="geometry" />
        </mxCell>
        <mxCell id="-ka1Ey7vz2dSu-BX1iiI-113" value="net.lab" style="text;html=1;align=center;verticalAlign=middle;whiteSpace=wrap;rounded=0;rotation=-30;fontFamily=Montserrat;fontSource=https%3A%2F%2Ffonts.googleapis.com%2Fcss%3Ffamily%3DMontserrat;textOpacity=15;fontColor=#000000;container=0;" parent="-ka1Ey7vz2dSu-BX1iiI-84" vertex="1">
          <mxGeometry x="241.40471020749447" y="176.12318979173617" width="91.0002089629002" height="29.233620416527685" as="geometry" />
        </mxCell>
        <mxCell id="-ka1Ey7vz2dSu-BX1iiI-114" value="net.lab" style="text;html=1;align=center;verticalAlign=middle;whiteSpace=wrap;rounded=0;rotation=-30;fontFamily=Montserrat;fontSource=https%3A%2F%2Ffonts.googleapis.com%2Fcss%3Ffamily%3DMontserrat;textOpacity=15;fontColor=#000000;container=0;" parent="-ka1Ey7vz2dSu-BX1iiI-84" vertex="1">
          <mxGeometry x="321.404893911143" y="176.12318979173617" width="91.0002089629002" height="29.233620416527685" as="geometry" />
        </mxCell>
        <mxCell id="-ka1Ey7vz2dSu-BX1iiI-115" value="net.lab" style="text;html=1;align=center;verticalAlign=middle;whiteSpace=wrap;rounded=0;rotation=-30;fontFamily=Montserrat;fontSource=https%3A%2F%2Ffonts.googleapis.com%2Fcss%3Ffamily%3DMontserrat;textOpacity=15;fontColor=#000000;container=0;" parent="-ka1Ey7vz2dSu-BX1iiI-84" vertex="1">
          <mxGeometry x="401.40507761479154" y="176.12318979173617" width="91.0002089629002" height="29.233620416527685" as="geometry" />
        </mxCell>
        <mxCell id="-ka1Ey7vz2dSu-BX1iiI-116" value="net.lab" style="text;html=1;align=center;verticalAlign=middle;whiteSpace=wrap;rounded=0;rotation=-30;fontFamily=Montserrat;fontSource=https%3A%2F%2Ffonts.googleapis.com%2Fcss%3Ffamily%3DMontserrat;textOpacity=15;fontColor=#000000;container=0;" parent="-ka1Ey7vz2dSu-BX1iiI-84" vertex="1">
          <mxGeometry x="481.40526131844007" y="176.12318979173617" width="91.0002089629002" height="29.233620416527685" as="geometry" />
        </mxCell>
        <mxCell id="-ka1Ey7vz2dSu-BX1iiI-117" value="net.lab" style="text;html=1;align=center;verticalAlign=middle;whiteSpace=wrap;rounded=0;rotation=-30;fontFamily=Montserrat;fontSource=https%3A%2F%2Ffonts.googleapis.com%2Fcss%3Ffamily%3DMontserrat;textOpacity=15;fontColor=#000000;container=0;" parent="-ka1Ey7vz2dSu-BX1iiI-84" vertex="1">
          <mxGeometry x="561.4054450220885" y="176.12318979173617" width="91.0002089629002" height="29.233620416527685" as="geometry" />
        </mxCell>
        <mxCell id="-ka1Ey7vz2dSu-BX1iiI-118" value="net.lab" style="text;html=1;align=center;verticalAlign=middle;whiteSpace=wrap;rounded=0;rotation=-30;fontFamily=Montserrat;fontSource=https%3A%2F%2Ffonts.googleapis.com%2Fcss%3Ffamily%3DMontserrat;textOpacity=15;fontColor=#000000;container=0;" parent="-ka1Ey7vz2dSu-BX1iiI-84" vertex="1">
          <mxGeometry x="641.4056287257371" y="20.210547570255184" width="91.0002089629002" height="29.233620416527685" as="geometry" />
        </mxCell>
        <mxCell id="-ka1Ey7vz2dSu-BX1iiI-119" value="net.lab" style="text;html=1;align=center;verticalAlign=middle;whiteSpace=wrap;rounded=0;rotation=-30;fontFamily=Montserrat;fontSource=https%3A%2F%2Ffonts.googleapis.com%2Fcss%3Ffamily%3DMontserrat;textOpacity=15;fontColor=#000000;container=0;" parent="-ka1Ey7vz2dSu-BX1iiI-84" vertex="1">
          <mxGeometry x="641.4056287257371" y="98.16686868099568" width="91.0002089629002" height="29.233620416527685" as="geometry" />
        </mxCell>
        <mxCell id="-ka1Ey7vz2dSu-BX1iiI-120" value="net.lab" style="text;html=1;align=center;verticalAlign=middle;whiteSpace=wrap;rounded=0;rotation=-30;fontFamily=Montserrat;fontSource=https%3A%2F%2Ffonts.googleapis.com%2Fcss%3Ffamily%3DMontserrat;textOpacity=15;fontColor=#000000;container=0;" parent="-ka1Ey7vz2dSu-BX1iiI-84" vertex="1">
          <mxGeometry x="641.4056287257371" y="176.12318979173617" width="91.0002089629002" height="29.233620416527685" as="geometry" />
        </mxCell>
        <mxCell id="-ka1Ey7vz2dSu-BX1iiI-121" value="net.lab" style="text;html=1;align=center;verticalAlign=middle;whiteSpace=wrap;rounded=0;rotation=-30;fontFamily=Montserrat;fontSource=https%3A%2F%2Ffonts.googleapis.com%2Fcss%3Ffamily%3DMontserrat;textOpacity=15;fontColor=#000000;container=0;" parent="-ka1Ey7vz2dSu-BX1iiI-84" vertex="1">
          <mxGeometry x="1.4041590965489246" y="254.07951090247664" width="91.0002089629002" height="29.233620416527685" as="geometry" />
        </mxCell>
        <mxCell id="-ka1Ey7vz2dSu-BX1iiI-122" value="net.lab" style="text;html=1;align=center;verticalAlign=middle;whiteSpace=wrap;rounded=0;rotation=-30;fontFamily=Montserrat;fontSource=https%3A%2F%2Ffonts.googleapis.com%2Fcss%3Ffamily%3DMontserrat;textOpacity=15;fontColor=#000000;container=0;" parent="-ka1Ey7vz2dSu-BX1iiI-84" vertex="1">
          <mxGeometry x="81.40434280019745" y="254.07951090247664" width="91.0002089629002" height="29.233620416527685" as="geometry" />
        </mxCell>
        <mxCell id="-ka1Ey7vz2dSu-BX1iiI-123" value="net.lab" style="text;html=1;align=center;verticalAlign=middle;whiteSpace=wrap;rounded=0;rotation=-30;fontFamily=Montserrat;fontSource=https%3A%2F%2Ffonts.googleapis.com%2Fcss%3Ffamily%3DMontserrat;textOpacity=15;fontColor=#000000;container=0;" parent="-ka1Ey7vz2dSu-BX1iiI-84" vertex="1">
          <mxGeometry x="161.40452650384597" y="254.07951090247664" width="91.0002089629002" height="29.233620416527685" as="geometry" />
        </mxCell>
        <mxCell id="-ka1Ey7vz2dSu-BX1iiI-124" value="net.lab" style="text;html=1;align=center;verticalAlign=middle;whiteSpace=wrap;rounded=0;rotation=-30;fontFamily=Montserrat;fontSource=https%3A%2F%2Ffonts.googleapis.com%2Fcss%3Ffamily%3DMontserrat;textOpacity=15;fontColor=#000000;container=0;" parent="-ka1Ey7vz2dSu-BX1iiI-84" vertex="1">
          <mxGeometry x="241.40471020749447" y="254.07951090247664" width="91.0002089629002" height="29.233620416527685" as="geometry" />
        </mxCell>
        <mxCell id="-ka1Ey7vz2dSu-BX1iiI-125" value="net.lab" style="text;html=1;align=center;verticalAlign=middle;whiteSpace=wrap;rounded=0;rotation=-30;fontFamily=Montserrat;fontSource=https%3A%2F%2Ffonts.googleapis.com%2Fcss%3Ffamily%3DMontserrat;textOpacity=15;fontColor=#000000;container=0;" parent="-ka1Ey7vz2dSu-BX1iiI-84" vertex="1">
          <mxGeometry x="321.404893911143" y="254.07951090247664" width="91.0002089629002" height="29.233620416527685" as="geometry" />
        </mxCell>
        <mxCell id="-ka1Ey7vz2dSu-BX1iiI-126" value="net.lab" style="text;html=1;align=center;verticalAlign=middle;whiteSpace=wrap;rounded=0;rotation=-30;fontFamily=Montserrat;fontSource=https%3A%2F%2Ffonts.googleapis.com%2Fcss%3Ffamily%3DMontserrat;textOpacity=15;fontColor=#000000;container=0;" parent="-ka1Ey7vz2dSu-BX1iiI-84" vertex="1">
          <mxGeometry x="401.40507761479154" y="254.07951090247664" width="91.0002089629002" height="29.233620416527685" as="geometry" />
        </mxCell>
        <mxCell id="-ka1Ey7vz2dSu-BX1iiI-127" value="net.lab" style="text;html=1;align=center;verticalAlign=middle;whiteSpace=wrap;rounded=0;rotation=-30;fontFamily=Montserrat;fontSource=https%3A%2F%2Ffonts.googleapis.com%2Fcss%3Ffamily%3DMontserrat;textOpacity=15;fontColor=#000000;container=0;" parent="-ka1Ey7vz2dSu-BX1iiI-84" vertex="1">
          <mxGeometry x="481.40526131844007" y="254.07951090247664" width="91.0002089629002" height="29.233620416527685" as="geometry" />
        </mxCell>
        <mxCell id="-ka1Ey7vz2dSu-BX1iiI-128" value="net.lab" style="text;html=1;align=center;verticalAlign=middle;whiteSpace=wrap;rounded=0;rotation=-30;fontFamily=Montserrat;fontSource=https%3A%2F%2Ffonts.googleapis.com%2Fcss%3Ffamily%3DMontserrat;textOpacity=15;fontColor=#000000;container=0;" parent="-ka1Ey7vz2dSu-BX1iiI-84" vertex="1">
          <mxGeometry x="561.4054450220885" y="254.07951090247664" width="91.0002089629002" height="29.233620416527685" as="geometry" />
        </mxCell>
        <mxCell id="-ka1Ey7vz2dSu-BX1iiI-129" value="net.lab" style="text;html=1;align=center;verticalAlign=middle;whiteSpace=wrap;rounded=0;rotation=-30;fontFamily=Montserrat;fontSource=https%3A%2F%2Ffonts.googleapis.com%2Fcss%3Ffamily%3DMontserrat;textOpacity=15;fontColor=#000000;container=0;" parent="-ka1Ey7vz2dSu-BX1iiI-84" vertex="1">
          <mxGeometry x="641.4056287257371" y="254.07951090247664" width="91.0002089629002" height="29.233620416527685" as="geometry" />
        </mxCell>
      </root>
    </mxGraphModel>
  </diagram>
</mxfile>
